<svg height="512" viewBox="0 0 64 64" width="512" xmlns="http://www.w3.org/2000/svg"><path d="m57 2h-50a5.006 5.006 0 0 0 -5 5v50a5.006 5.006 0 0 0 5 5h50a5.006 5.006 0 0 0 5-5v-50a5.006 5.006 0 0 0 -5-5zm-50 2h50a3 3 0 0 1 3 3v3h-56v-3a3 3 0 0 1 3-3zm50 56h-50a3 3 0 0 1 -3-3v-45h56v31h-18a1 1 0 0 0 -.447.1l-3.789 1.9h-2.764a3 3 0 0 0 0 6h2.764l3.789 1.9a1 1 0 0 0 .447.1h18v4a3 3 0 0 1 -3 3zm-18-13.382 3.168-1.584a.987.987 0 0 1 .832.966 1 1 0 0 1 -1 1 1 1 0 0 0 0 2 1 1 0 0 1 1 1 .987.987 0 0 1 -.832.966l-3.168-1.584zm5.821 2.382h15.179v2h-15.184a2.846 2.846 0 0 0 0-2zm0-2a2.846 2.846 0 0 0 0-2h15.179v2zm-9.821 2a1 1 0 0 1 0-2h2v2z"/><path d="m8 6h2v2h-2z"/><path d="m12 6h2v2h-2z"/><path d="m16 6h2v2h-2z"/><path d="m39 35.182v3.818a1 1 0 0 0 1.707.707l3.713-3.712c6.423-.167 11.58-4.138 11.58-8.995 0-4.962-5.383-9-12-9s-12 4.038-12 9c0 3.574 2.723 6.725 7 8.182zm5-15.182c5.514 0 10 3.14 10 7s-4.486 7-10 7a1 1 0 0 0 -.707.293l-2.293 2.293v-2.14a1 1 0 0 0 -.727-.962c-3.752-1.067-6.273-3.672-6.273-6.484 0-3.86 4.486-7 10-7z"/><path d="m37 24h14v2h-14z"/><path d="m37 28h14v2h-14z"/><path d="m27 18h-18a1 1 0 0 0 -1 1v14a1 1 0 0 0 1 1h18a1 1 0 0 0 1-1v-14a1 1 0 0 0 -1-1zm-1 14h-16v-12h16z"/><path d="m8 38h20v2h-20z"/><path d="m8 42h20v2h-20z"/><path d="m8 46h20v2h-20z"/><path d="m8 50h20v2h-20z"/></svg>