<svg height="512" viewBox="0 0 64 64" width="512" xmlns="http://www.w3.org/2000/svg"><path d="m12 26h2v2h-2z"/><path d="m16 26h2v2h-2z"/><path d="m20 26h2v2h-2z"/><path d="m59 12h-19v-7a3 3 0 0 0 -3-3h-32a3 3 0 0 0 -3 3v32a3 3 0 0 0 3 3h3v19a3 3 0 0 0 3 3h38a3 3 0 0 0 3-3v-9h7a3 3 0 0 0 3-3v-32a3 3 0 0 0 -3-3zm1 3v3h-34v-3a1 1 0 0 1 1-1h32a1 1 0 0 1 1 1zm-10 15h-40v-5a1 1 0 0 1 1-1h38a1 1 0 0 1 1 1zm-45-26h32a1 1 0 0 1 1 1v3h-34v-3a1 1 0 0 1 1-1zm0 34a1 1 0 0 1 -1-1v-27h34v2h-11a3 3 0 0 0 -3 3v7h-13a3 3 0 0 0 -3 3v13zm44 22h-38a1 1 0 0 1 -1-1v-27h40v27a1 1 0 0 1 -1 1zm10-12h-7v-23a3 3 0 0 0 -3-3h-23v-2h34v27a1 1 0 0 1 -1 1z"/><path d="m54 24h4v2h-4z"/><path d="m54 29h4v2h-4z"/><path d="m54 34h4v2h-4z"/><path d="m54 39h4v2h-4z"/><path d="m9 20h12a1 1 0 0 0 1-1v-6a1 1 0 0 0 -1-1h-12a1 1 0 0 0 -1 1v6a1 1 0 0 0 1 1zm1-6h10v4h-10z"/><path d="m46 34h-32a1 1 0 0 0 -1 1v12a1 1 0 0 0 1 1h32a1 1 0 0 0 1-1v-12a1 1 0 0 0 -1-1zm-31 2h30v8.132l-7.445-4.964a1 1 0 0 0 -1.078-.02l-6.2 3.812-3.677-2.76a1 1 0 0 0 -1.115-.057l-9.762 5.857h-.723zm16 10h-11.39l6.328-3.8zm1-1.75 4.98-3.062 7.22 4.812h-9.867z"/><path d="m13 50h16v2h-16z"/><path d="m31 50h16v2h-16z"/><path d="m13 54h16v2h-16z"/><path d="m31 54h16v2h-16z"/></svg>